<svg width="21" height="21" viewBox="0 0 21 21" fill="none" xmlns="http://www.w3.org/2000/svg">
<path d="M0.75 10.25C0.75 5.77166 0.75 3.53249 2.14124 2.14124C3.53249 0.75 5.77166 0.75 10.25 0.75C14.7283 0.75 16.9675 0.75 18.3588 2.14124C19.75 3.53249 19.75 5.77166 19.75 10.25C19.75 14.7283 19.75 16.9675 18.3588 18.3588C16.9675 19.75 14.7283 19.75 10.25 19.75C5.77166 19.75 3.53249 19.75 2.14124 18.3588C0.75 16.9675 0.75 14.7283 0.75 10.25Z" stroke="#F2F2F7" stroke-width="1.5"/>
<path d="M14.25 14.25C14.8661 14.25 15.3655 13.7383 15.3655 13.1071V11.8662C15.3655 11.5631 15.483 11.2724 15.6922 11.0581L16.0866 10.6541C16.3045 10.4309 16.3045 10.0691 16.0866 9.84594L15.6922 9.44188C15.483 9.22755 15.3655 8.93686 15.3655 8.63376V7.39286C15.3655 6.76167 14.8661 6.25 14.25 6.25" stroke="#F2F2F7" stroke-width="1.5" stroke-linecap="round" stroke-linejoin="round"/>
<path d="M6.25 14.25C5.63392 14.25 5.13448 13.7383 5.13448 13.1071V11.8662C5.13448 11.5631 5.01696 11.2724 4.80776 11.0581L4.41336 10.6541C4.19555 10.4309 4.19555 10.0691 4.41336 9.84594L4.80776 9.44188C5.01696 9.22755 5.13448 8.93686 5.13448 8.63376V7.39286C5.13448 6.76167 5.63392 6.25 6.25 6.25" stroke="#F2F2F7" stroke-width="1.5" stroke-linecap="round" stroke-linejoin="round"/>
<path d="M8.25 10.25H8.25896M12.241 10.25H12.25" stroke="#F2F2F7" stroke-width="2" stroke-linecap="round" stroke-linejoin="round"/>
</svg>
